<svg width="21" height="20" viewBox="0 0 21 20" fill="none" xmlns="http://www.w3.org/2000/svg">
<path d="M17.1982 8.95354C17.1202 4.54773 13.5244 1 9.09984 1C4.6262 1 1 4.6262 1 9.09984C1 11.2109 1.80745 13.1336 3.13076 14.5748L2.52378 18.2248L6.12568 16.6783C7.71274 17.2058 9.2102 17.3379 10.6186 17.0741" stroke="#002C47" stroke-width="1.5" stroke-linecap="round" stroke-linejoin="round"/>
<path d="M6.12538 8.32459C6.27553 8.32406 6.42411 8.29395 6.56263 8.23598C6.70114 8.17801 6.82688 8.09332 6.93266 7.98675C7.03844 7.88017 7.12218 7.7538 7.1791 7.61485C7.23603 7.4759 7.26502 7.3271 7.26442 7.17694C7.26502 7.02679 7.23603 6.87799 7.1791 6.73904C7.12218 6.60009 7.03844 6.47372 6.93266 6.36714C6.82688 6.26057 6.70114 6.17587 6.56263 6.11791C6.42411 6.05994 6.27553 6.02983 6.12538 6.0293C5.97522 6.02983 5.82664 6.05994 5.68813 6.11791C5.54961 6.17587 5.42387 6.26057 5.3181 6.36714C5.21232 6.47372 5.12858 6.60009 5.07165 6.73904C5.01473 6.87799 4.98574 7.02679 4.98634 7.17694C4.98574 7.3271 5.01473 7.4759 5.07165 7.61485C5.12858 7.7538 5.21232 7.88017 5.3181 7.98675C5.42387 8.09332 5.54961 8.17801 5.68813 8.23598C5.82664 8.29395 5.97522 8.32406 6.12538 8.32459ZM10.6815 8.32459C10.8317 8.32406 10.9803 8.29395 11.1188 8.23598C11.2573 8.17801 11.383 8.09332 11.4888 7.98675C11.5946 7.88017 11.6783 7.7538 11.7353 7.61485C11.7922 7.4759 11.8212 7.3271 11.8206 7.17694C11.8212 7.02679 11.7922 6.87799 11.7353 6.73904C11.6783 6.60009 11.5946 6.47372 11.4888 6.36714C11.383 6.26057 11.2573 6.17587 11.1188 6.11791C10.9803 6.05994 10.8317 6.02983 10.6815 6.0293C10.5314 6.02983 10.3828 6.05994 10.2443 6.11791C10.1058 6.17587 9.98003 6.26057 9.87426 6.36714C9.76848 6.47372 9.68474 6.60009 9.62781 6.73904C9.57089 6.87799 9.5419 7.02679 9.5425 7.17694C9.5419 7.3271 9.57089 7.4759 9.62781 7.61485C9.68474 7.7538 9.76848 7.88017 9.87426 7.98675C9.98003 8.09332 10.1058 8.17801 10.2443 8.23598C10.3828 8.29395 10.5314 8.32406 10.6815 8.32459Z" fill="#002C47"/>
<path d="M18.092 18.1779C17.1761 18.8601 16.0641 19.2277 14.922 19.2258C11.9863 19.2258 9.60645 16.8459 9.60645 13.9102C9.60645 10.9746 11.9863 8.59473 14.922 8.59473C17.8577 8.59473 20.2375 10.9746 20.2375 13.9102C20.2375 14.7202 20.0563 15.4877 19.7323 16.1747" stroke="#002C47" stroke-width="1.5" stroke-linecap="round" stroke-linejoin="round"/>
<path d="M19.732 16.1738L20.2372 19.2249L18.0918 18.177" stroke="#002C47" stroke-width="1.5" stroke-linecap="round" stroke-linejoin="round"/>
<path d="M16.5353 13.5552C16.4227 13.5548 16.3113 13.5322 16.2074 13.4888C16.1035 13.4453 16.0092 13.3818 15.9298 13.3019C15.8505 13.222 15.7876 13.1272 15.7449 13.023C15.7022 12.9188 15.6804 12.8072 15.6808 12.6946C15.6808 12.2192 16.063 11.834 16.5353 11.834C17.0066 11.834 17.3894 12.2192 17.3894 12.6946C17.3894 13.17 17.0071 13.5552 16.5348 13.5552H16.5353ZM13.1182 13.5552C13.0056 13.5548 12.8942 13.5322 12.7903 13.4888C12.6864 13.4453 12.5921 13.3818 12.5127 13.3019C12.4334 13.222 12.3705 13.1272 12.3278 13.023C12.2851 12.9188 12.2633 12.8072 12.2637 12.6946C12.2637 12.2192 12.6464 11.834 13.1182 11.834C13.5895 11.834 13.9722 12.2192 13.9722 12.6946C13.9722 13.17 13.5895 13.5552 13.1177 13.5552H13.1182Z" fill="#002C47"/>
</svg>
